Coordinates
version=1
nRows=16
nColumns=40
inDegrees=yes

Units are S.I. units (second, meters, Newtons, ...)
Angles are in degrees.

endheader
time	pelvis_tilt	pelvis_list	pelvis_rotation	pelvis_tx	pelvis_ty	pelvis_tz	hip_flexion_r	hip_adduction_r	hip_rotation_r	knee_angle_r	knee_angle_r_beta	ankle_angle_r	subtalar_angle_r	mtp_angle_r	hip_flexion_l	hip_adduction_l	hip_rotation_l	knee_angle_l	knee_angle_l_beta	ankle_angle_l	subtalar_angle_l	mtp_angle_l	lumbar_extension	lumbar_bending	lumbar_rotation	arm_flex_r	arm_add_r	arm_rot_r	elbow_flex_r	pro_sup_r	wrist_flex_r	wrist_dev_r	arm_flex_l	arm_add_l	arm_rot_l	elbow_flex_l	pro_sup_l	wrist_flex_l	wrist_dev_l
     25.81114286	     -5.97849221	     -3.80894258	     -3.06689427	      1.05757451	      0.91531444	      0.46412009	     29.80607299	     -0.14383958	    -13.40336479	     16.02797744	     16.02797744	      2.84285704	      4.09800570	      8.73497687	      0.34193724	     -5.31482171	     -8.61090432	     14.38524265	     14.38524265	     21.00986293	     -5.20175545	     -2.52395106	    -10.51819382	      4.80599113	      4.51490535	    -16.16313956	    -13.02566593	    -10.01171018	     21.66330575	     47.20474827	      0.00000000	      0.00000000	     29.22230461	    -19.47151371	      4.41419289	     87.42177216	     47.14034987	      0.00000000	      0.00000000
     25.82228571	     -5.95749770	     -3.80771305	     -3.01014771	      1.05983421	      0.91337329	      0.46675245	     29.58064498	      0.17645290	    -13.35612089	     16.24684353	     16.24684353	      1.68534884	      3.05205106	      5.52380791	     -0.06990180	     -5.58736223	     -8.85568698	     15.10423456	     15.10423456	     22.19154829	     -4.60630417	     -1.41296751	    -10.34661504	      4.77839513	      3.89160253	    -17.31257982	    -13.06528906	     -9.48502381	     23.45470821	     47.03232960	      0.00000000	      0.00000000	     28.24349808	    -20.11119906	      3.32891694	     90.66376107	     47.33526131	      0.00000000	      0.00000000
     25.83342857	     -5.90653808	     -3.85031151	     -2.93150212	      1.06191930	      0.91170286	      0.46931539	     29.55798776	      0.37193791	    -13.35025249	     17.24511252	     17.24511252	      1.59797575	      2.24954509	      4.76445626	     -0.38610263	     -5.86399348	     -8.65267471	     15.95687502	     15.95687502	     22.65961634	     -4.93869593	     -1.51229384	    -10.16833542	      4.81214872	      4.14114712	    -18.11252165	    -12.89434486	     -9.34155785	     23.28476369	     47.01459722	      0.00000000	      0.00000000	     28.35554253	    -19.77580016	      3.17204727	     91.76972094	     47.37735537	      0.00000000	      0.00000000
     25.84457143	     -5.88738429	     -3.87354516	     -2.79413364	      1.06391955	      0.91011446	      0.47195465	     29.41651116	      0.63187551	    -12.86010085	     17.99012741	     17.99012741	      0.10205149	      0.25577757	     -0.03030265	     -0.35541657	     -6.23128635	     -8.56094174	     17.41038788	     17.41038788	     23.42220674	     -4.91631017	     -1.08068804	    -10.06520176	      4.82972029	      3.61297131	    -18.83779058	    -12.92281962	     -8.55072801	     24.51301568	     46.85207945	      0.00000000	      0.00000000	     27.23178345	    -20.04699859	      2.01101791	     94.78628151	     47.58605272	      0.00000000	      0.00000000
     25.85571429	     -5.84486496	     -3.95462413	     -2.63883989	      1.06567044	      0.90897392	      0.47452213	     29.46840791	      0.78632036	    -12.56212416	     19.39192683	     19.39192683	      0.23011856	     -1.00965523	     -0.96431765	     -0.13889484	     -6.63639128	     -8.14155127	     19.15372523	     19.15372523	     23.54979287	     -5.65294719	     -1.48579546	     -9.97056788	      4.93207277	      3.81737426	    -19.26448860	    -12.69466290	     -8.31846497	     24.41998775	     46.82568243	      0.00000000	      0.00000000	     27.04919063	    -19.69395655	      1.87647881	     95.85390658	     47.63422868	      0.00000000	      0.00000000
     25.86685714	     -5.39595287	     -4.05907890	     -2.49009848	      1.06758915	      0.90904654	      0.47706242	     28.88150723	      0.92756329	    -12.41311409	     20.55463499	     20.55463499	      0.68863525	     -1.60748842	     -1.46577450	     -0.35822962	     -7.04057793	     -7.76403233	     20.90667536	     20.90667536	     23.43370730	     -6.29213701	     -1.79136061	    -10.37087571	      5.07148601	      3.91724361	    -19.36436248	    -12.43445010	     -8.25491753	     24.39200540	     46.81869187	      0.00000000	      0.00000000	     26.67045200	    -19.45061889	      1.85707474	     96.24013560	     47.64529000	      0.00000000	      0.00000000
     25.87800000	     -5.60727507	     -4.18601009	     -2.22135021	      1.06855466	      0.90813188	      0.47957010	     29.24468596	      1.06524523	    -12.08034836	     22.05504132	     22.05504132	      1.10441652	     -2.94563879	     -2.21738280	      0.95657451	     -7.61251835	     -7.07431430	     23.98035647	     23.98035647	     23.03662133	     -7.50279440	     -2.61599394	    -10.13467429	      5.22791999	      4.04396464	    -19.35991012	    -12.26009091	     -8.18711635	     24.46896231	     46.80602634	      0.00000000	      0.00000000	     26.35818245	    -19.04713178	      1.57827545	     97.66049833	     47.70024556	      0.00000000	      0.00000000
     25.88914286	     -5.38974641	     -4.35932953	     -1.99694040	      1.06973777	      0.90849351	      0.48207020	     28.84818394	      1.27538979	    -11.89316462	     23.05587809	     23.05587809	      1.70667872	     -3.69894281	     -2.72585641	      1.78265849	     -8.18090269	     -6.44608510	     26.99915398	     26.99915398	     22.27212825	     -8.68992198	     -3.34063483	    -10.41226597	      5.45083855	      4.08053312	    -18.97214367	    -12.08654112	     -8.12624435	     24.60689586	     46.79599793	      0.00000000	      0.00000000	     25.70556002	    -18.74431025	      1.37150500	     98.45930305	     47.73439662	      0.00000000	      0.00000000
     25.90028571	     -5.36746215	     -4.44253937	     -1.72445202	      1.07056552	      0.90901293	      0.48446398	     28.53518387	      1.43601151	    -11.60416866	     23.74076055	     23.74076055	      2.26966152	     -4.56455865	     -3.14142250	      3.01887063	     -8.58392927	     -5.56503515	     30.10199614	     30.10199614	     20.08740523	    -10.88528151	     -6.18776848	    -10.52061979	      5.57136191	      3.14254121	    -17.68175684	    -12.08304892	     -7.72815029	     24.57696524	     46.76423533	      0.00000000	      0.00000000	     23.64449376	    -18.80167035	     -0.37553491	    100.81894563	     47.93359378	      0.00000000	      0.00000000
     25.91142857	     -5.00825526	     -4.61427481	     -1.50397083	      1.07137938	      0.91035735	      0.48691183	     27.67284787	      1.63671127	    -11.71900236	     24.12114801	     24.12114801	      3.09476190	     -4.49956432	     -3.45166213	      4.08993926	     -9.17938846	     -5.09553365	     33.65130024	     33.65130024	     18.81362224	    -11.96583522	     -6.53945624	    -10.98920637	      5.78313541	      3.43502460	    -16.86539062	    -11.85222580	     -7.59491273	     24.70196759	     46.75414053	      0.00000000	      0.00000000	     23.06273901	    -18.28284707	     -0.20238916	    100.77747420	     47.92422389	      0.00000000	      0.00000000
     25.92257143	     -5.08577809	     -4.89472574	     -1.12907259	      1.07162451	      0.91124325	      0.48916163	     27.19353320	      1.88071772	    -12.16641888	     24.25329840	     24.25329840	      3.80839230	     -4.30841804	     -3.60348168	      6.08643055	     -9.86782928	     -4.28078058	     37.71747317	     37.71747317	     17.12660789	    -13.52991896	     -6.84633833	    -10.96376666	      6.13961189	      3.55958334	    -15.98755570	    -11.67764375	     -7.42299099	     24.76234040	     46.74393491	      0.00000000	      0.00000000	     22.29748059	    -17.72209119	     -0.07008480	    100.79892938	     47.92046157	      0.00000000	      0.00000000
     25.93371429	     -4.99434046	     -5.10854193	     -0.81973315	      1.07178581	      0.91264098	      0.49141796	     26.42827651	      2.10448943	    -12.59542827	     24.16246228	     24.16246228	      4.53408397	     -3.92381819	     -3.69656229	      7.90443085	    -10.44873366	     -3.62324866	     41.63769642	     41.63769642	     15.30572505	    -15.03734709	     -6.77089387	    -11.15761868	      6.39165624	      3.69664239	    -14.80847723	    -11.51888236	     -7.24989777	     24.94344858	     46.73154018	      0.00000000	      0.00000000	     21.39405904	    -17.20928216	      0.09185070	    100.64427299	     47.90945854	      0.00000000	      0.00000000
     25.94485714	     -5.07647556	     -5.34121949	     -0.44381747	      1.07171396	      0.91392117	      0.49348370	     25.71919703	      2.31182285	    -13.26186522	     23.80043592	     23.80043592	      5.22012889	     -3.20244177	     -3.68707091	     10.08626458	    -10.99524484	     -2.85162211	     45.60021352	     45.60021352	     13.52030445	    -16.60757506	     -6.16324169	    -11.14829141	      6.69204134	      3.70230314	    -13.50172999	    -11.42989674	     -7.00978521	     25.07112701	     46.71695581	      0.00000000	      0.00000000	     20.29180554	    -16.75120068	      0.21022334	    100.32791558	     47.89916437	      0.00000000	      0.00000000
     25.95600000	     -5.04219057	     -5.40297552	     -0.12292221	      1.07150478	      0.91555163	      0.49528766	     24.93143076	      2.22718119	    -14.28679945	     23.57854231	     23.57854231	      6.29360925	     -1.51575984	     -2.75203416	     12.28357948	    -11.26275825	     -2.17981744	     49.71925348	     49.71925348	     13.62549214	    -17.25737192	     -0.77708321	    -11.22422961	      6.79522511	      3.10669691	    -11.17428999	    -11.45808027	     -5.48155435	     23.99538497	     46.65221552	      0.00000000	      0.00000000	     18.65425415	    -16.39299737	     -0.68884768	    100.21169815	     48.00036056	      0.00000000	      0.00000000
     25.96714286	     -5.05734022	     -5.71603010	      0.20778818	      1.07119030	      0.91695952	      0.49740051	     24.04065976	      2.63596594	    -14.86787661	     22.92043316	     22.92043316	      6.74360017	     -1.04148486	     -2.73239930	     14.46203073	    -12.05106807	     -1.87881159	     53.30270645	     53.30270645	     12.33526021	    -18.07040787	      0.03040738	    -11.29801275	      7.14519426	      3.30531690	     -9.76248392	    -11.45421530	     -5.29897416	     24.44345283	     46.63000499	      0.00000000	      0.00000000	     17.57927548	    -15.90127111	     -0.19942419	     99.57804580	     47.95815747	      0.00000000	      0.00000000
     25.97828571	     -5.11785358	     -5.85758051	      0.52668411	      1.07067215	      0.91841138	      0.49910396	     23.22007066	      2.73396177	    -15.81049863	     22.34020187	     22.34020187	      7.31988984	      0.36334856	     -2.39245696	     16.95885112	    -12.41363397	     -1.30793652	     57.16701852	     57.16701852	     13.97930198	    -18.14753840	      8.22850968	    -11.27140345	      7.32376412	      3.32252628	     -7.99170650	    -11.59043179	     -3.73902586	     24.39343403	     46.51303680	      0.00000000	      0.00000000	     16.48152820	    -15.45563300	      0.06960160	     98.23721582	     47.96772669	      0.00000000	      0.00000000
